<?xml version="1.0" encoding="iso-8859-1"?>
<!-- Generator: Adobe Illustrator 30.5.1, SVG Export Plug-In . SVG Version: 9.03 Build 0)  -->
<svg version="1.1" id="Calque_1" xmlns="http://www.w3.org/2000/svg" xmlns:xlink="http://www.w3.org/1999/xlink" x="0px" y="0px"
	 viewBox="0 0 612 408" style="enable-background:new 0 0 612 408;" xml:space="preserve">
<g>
	<path style="fill:#D4342B;" d="M166.812,95.102c4.71-6.164,26.079,12.29,26.114,12.475c0.14,0.735-0.19,1.57-1.397,2.516
		C181.668,106.348,163.02,100.065,166.812,95.102z"/>
	<path style="fill:#D4342B;" d="M187.883,123.887c-2.333-0.115-4.597,0.97-6.955,0.986l-17.892,0.122
		c-2.015,0.014-3.905-0.943-4.113-2.478c-1.017-7.523,16.933-4.264,28.838-1.467C187.903,121.497,188.083,122.376,187.883,123.887z"
		/>
	<path style="fill:#F4B733;" d="M439.302,89.677c-5.599,4.187-9.705,9.083-16.797,10.674c2.19-7.294,7.606-11.506,12.201-16.735
		c1.876-2.135,6.2-4.906,8.498-2.037C445.675,84.664,441.685,87.895,439.302,89.677z"/>
	<path style="fill:#D4342B;" d="M182.66,143.158l-11.858,6.706c-1.585,0.897-3.528-0.521-4.275-1.861
		c-2.428-4.358,13.395-10.908,23.565-13.133c0.776-0.17,1.263,2.088,0.895,2.575C190.859,137.615,185.107,141.774,182.66,143.158z"
		/>
	<path style="fill:#F4B733;" d="M453.01,107.656c-6.68,3.592-22.505,6.532-24.534,4.413c-1.87-1.953,12.835-8.003,21.808-10.106
		C452.14,101.528,454.725,106.733,453.01,107.656z"/>
	<path style="fill:#F4B733;" d="M451.149,131.574c0.561,7.668-14.35,0.477-24.321-5.164l0.41-2.428
		c6.962-0.298,13.472,1.996,20.008,4.706C449.224,129.508,450.978,129.236,451.149,131.574z"/>
	<g>
		<g>
			<path style="fill:#0D0E0A;" d="M154.119,272.314c-1.349,0.833-2.08,1.526-2.788,1.649c-0.936,0.162-1.607-1.436-1.779-2.941
				c-0.609,0.99-2.019,3.716-3.664,3.76c-2.799-0.384-3.837-5.036-2.645-7.511c1.427-2.963,0.493-5.327,1.153-7.95l6.859-27.251
				l-7.576-2.239c1.619-2.515,3.292-4.984,2.157-7.82c-0.985-2.461,2.49-5.115,4.911-6.132l6.626-2.782l5.77-21.601
				c-5.455,3.854-13.984,4.315-13.616,4.556c-0.456-0.299-0.587-1.439,0.292-2.734c-5.576-1.286-9.011,4.669-11.728,0.841
				c0.85-2.294,2.892-3.986,2.456-6.533c-2.071,0.878-2.843,1.481-4.588,1.2l4.137-6.773c21.494-11.648,49.395-18.862,73.848-21.427
				c7.585-0.796,15.105-1.677,21.542,2.668c-5.474,4.689,2.415,3.953,2.683,8.224c0.098,1.553-2.493,3.247-3.79,2.628
				c-4.643-2.215-5.857,1.99-8.283,2.512l-36.463,7.849l-6.743,21.585l17.85-3.43c5.74-1.103,11.517-1.05,16.953,1.982
				c-2.106,1.593-3.156,2.1-3.227,4.241c-1.291-0.048-2.851-0.562-4.034,1.571l8.349,1.72c0.294,0.679,0.396,1.691,0.141,3.103
				c-3.234-1.601-5.269,1.45-6.762,3.003l-35.862,7.977l-6.041,18.96l-6.834,20.521c-2.352-1.833-1.32-3.789-1.73-5.896
				C156.661,266.295,158.939,276.669,154.119,272.314z"/>
			<g>
				<path style="fill:#0C0D09;" d="M398.936,240.967c-2.482,2.133-6.084,3.418-9.037,0.71l4.272-3.62
					c-4.25,0.343-7.727-0.216-9.85-4.231l9.175-5.662c-2.93-2.367-2.567-4.557-1.694-7.348l7.14-22.814l8.451-24.927
					c-3.782,1.128-6.898-1.944-12.439-1.05c0.175-2.476,1.845-3.373,2.777-5.094c-1.267-2.889-0.251-5.408,2.449-6.901
					c23.766-13.136,62.507-19.383,70.439,7.907c4.746,3.338,2.229,9.578,2.575,13.728c0.47,5.628-1.096,8.026-2.933,12.379
					c-2.971,7.041-6.188,13.053-12.397,17.858l-8.396,6.497l-12.48,7.629l-7.886,4.016c-4.297,2.188-7.385,4.542-12.045,6.25
					c-4.052,1.485-8.771,3.757-12.896,4.554l-1.93,2.148C401.798,243.481,400.072,242.358,398.936,240.967z M413.484,220.505
					c17.48-10.006,38.794-25.938,43.255-43.771c1.372-5.487-1.378-9.668-6.657-10.907c-6.884-1.615-15.71-0.62-22.462,1.973
					c1.761,3.677-0.903,6.285-1.587,8.982c-1.05,4.143-2.292,7.52-3.595,11.398l-5.911,17.597
					C414.983,210.377,412.7,214.776,413.484,220.505z"/>
				<path style="fill:#0C0D09;" d="M259.552,253.839c-7.868,2.292-13.611,0.629-19.738-2.368
					c-12.423-6.075-17.439-15.787-15.024-29.608c3.019-17.279,12.262-32.101,24.953-44.158c5.656-5.374,12.083-11.874,20.361-12.296
					c4.202-0.214,6.577,0.637,10.848-1.629c5.193-2.754,13.586,0.395,17.679,4.317l3.613,5.672
					c2.977,4.674,5.922,9.885,3.871,15.361c2.134,9.268-3.731,19.984-7.839,29.088C290.739,234.922,277.695,248.553,259.552,253.839
					z M251.321,239.7c17.051-3.925,39.73-40.155,35.357-60.513c-7.161-0.176-12.333,3.691-17.207,8.286
					C243.922,211.56,240.958,242.086,251.321,239.7z"/>
				<path style="fill:#0C0D09;" d="M319.526,241.03c-3.286-2.116-5.835-3.414-7.863-6.953c-11.93-20.824,6.164-51.057,24.794-66.497
					c6.557-5.435,16.145-11.009,21.513-7.146c1.932,0.311,5.276-2.746,7.279-3.032c8.461-1.21,14.871,3.779,19.123,10.141
					c2.809,4.203,5.182,7.774,5.036,13.283c-0.626,23.636-16.777,51.061-38.955,61.571c-2.16,1.024-5.246,1.642-7.355,2.306
					C334.465,247.425,326.925,245.796,319.526,241.03z M334.833,230.809c2.239-0.872,5.105-1.387,7.115-2.968
					c14.966-11.769,25.228-28.824,28.258-47.653c0.382-2.374-0.655-5.208-1.941-5.994c-1.689-1.033-4.466,0.245-6.074,0.811
					c-10.732,3.774-15.515,11.315-20.557,17.66l-4.821,6.067c-1.649,2.075-2.346,4.887-3.635,7.362
					C327.992,216.058,326.368,234.107,334.833,230.809z"/>
			</g>
		</g>
		<g>
			<path style="fill:#DB2E26;" d="M330.763,268.889c0.577-0.184,1.242-0.34,1.822-0.871c0.384-0.352-0.698-1.402-1.036-1.884
				c-0.142-0.203,0.429-1.401,0.391-1.658c-0.094-0.628-0.838-0.41-1.005-0.086c-0.11,0.215-0.539,0.24-0.835,0.465
				c-0.793-0.56-0.941-1.445-0.64-2.004c2.258-4.191,22.367-8.952,32.52-10.693l8.736-0.347c1.363-0.054,3.343,1.517,4.98,1.624
				c0.613,0.04,0.528,2.424-0.332,2.387c-0.441-0.019-1.342,0.21-2.172,0.592c-0.549,0.253,0.053,2.245,1.457,2.587
				c2.149-1.09,7.432-1.897,8.797,1.468c3.495,8.613-10.659,25.545-6.627,39.322c7.404-5.982,11.222-13.791,13.871-22.156
				l6.967-22.001c0.975-3.078,2.749-5.742,5.326-5.249c3.552,0.679,4.407,2.546,5.263,5.288c1.54,4.931-0.13,7.789-1.418,12.11
				c-4.192,14.066-12.487,35.558-24.631,41.348c-6.184,2.949-14.951,0.846-17.2-5.98c-3.948-11.982,3.715-29.144,9.117-42.289
				l-16.791,4.64l-8.212,24.634l-6.754,22.27c-0.31,1.021-2.486,3.066-3.443,3.59c-0.606-0.029-0.988-2.464-1.601-2.738
				c-0.46-0.206-1.559,0.456-2.417,0.382c-2.282-0.197-3.484-3.197-2.973-5.672c2.77-13.421,7.052-25.842,11.306-38.928
				C337.349,269.337,333.4,273.545,330.763,268.889z"/>
			<path style="fill:#DB2F27;" d="M406.382,308.451c-0.462-0.371,0.974-2.582,0.567-2.995c-0.475-0.481-2.037-0.402-3.299-0.55
				c-1.938-3.87,7.756-3.65,2.519-8.421l4.307-16.004l7.384-22.122c-2.151-0.427-3.719-2.043-4.347-3.385
				c-2.85-6.099,9.635-11.648,24.718-10.981c5.85,0.259,11.986,4.349,14.599,10.493c5.754,13.528-5.348,33.063-19.177,42.215
				l-11.379,7.531c-2.37,1.568-5.515,1.285-7.981,3.115C412.242,308.868,408.385,309.8,406.382,308.451z M420.482,293.48
				c15.492-9.658,32.978-35.634,17.296-38.966c-1.94-0.412-6.445-0.759-7.252,1.856l-6.389,20.698
				C422.774,281.481,419.556,287.788,420.482,293.48z"/>
			<path style="fill:#DB2D26;" d="M481.179,285.225c4.19-0.984,7.684-0.156,11.321,2.921l-3.2,1.53l0.349,2.976
				c-2.062,3.316-6.469,4.027-9.848,5.099l-15.212,4.826c-5.397,3.001-11.888,0.948-14.71-4.793l6.261-22.612
				c-1.077-1.514-0.869-3.194-1.204-4.486c-0.527-2.035,2.598-2.406,3.149-3.474c2.13-4.134,2.028-8.747,4.487-12.765
				c0.526-0.859,0.676-2.385,0.295-2.696l-2.224-1.817c-1.751-1.431,0.316-7.932,3.249-8.902c9.722-3.216,19.435-5.156,29.445-5.464
				c2.745-0.084,4.966,1.034,6.9,3.818c-3.004,0.08-3.343,3.379-4.298,5.511c-6.623,1.726-14.087,2.718-20.357,5.721
				c-1.574,4.089-3.189,7.862-3.863,12.44c8.122-0.299,13.74-4.71,19.33,0.661c-2.754,0.671-2.969,3.724-4.288,4.922
				c-4.937,4.48-11.738,4.092-18.032,6.816c-2.974,2.407-3.957,9.168-3.684,13.556L481.179,285.225z"/>
			<path style="fill:#DB2D26;" d="M330.099,264.856c0.296-0.226,0.725-0.251,0.835-0.465c0.167-0.324,0.91-0.542,1.005,0.086
				c0.039,0.256-0.533,1.455-0.391,1.658c0.338,0.482,1.42,1.532,1.036,1.884c-0.579,0.531-1.245,0.688-1.822,0.871
				c-0.543-0.847-2.172-1.835-3.688-1.999l-3.588,12.399c-1.794,6.198-3.889,12.148-5.809,18.48l-5.578,18.393
				c-1.038,1.363-4.121,2.816-4.557,5.127c-1.58-3.199-3.009-4.418-6.056-4.863c-0.774-2.646-0.691-5.314-0.032-8.087
				c3.076-12.933,13.479-49.624,18.289-51.147c2.48-0.785,8.665,3.178,7.131,8.734C328.565,266.265,329.313,265.455,330.099,264.856
				z"/>
			<path style="fill:#DB2F27;" d="M307.324,251.374c3.239,2.788-0.652,20.803-11.715,21.471c-0.538,0.032-1.588-0.893-1.413-1.913
				c0.247-1.439,2.847-3.433,2.664-5.004c-1.408-5.682-1.035-12.35,3.856-16.21C302.288,248.477,306.034,250.264,307.324,251.374z"
				/>
			<g>
				<path style="fill:#DE2E26;" d="M173.515,318.548l-17.675,5.226l-10.134,20.915c-0.984,2.031-2.889,3.252-3.112,6.062
					c-0.065,0.819-0.625,2.037-1.223,2.175c-0.605,0.14-2.4,0.368-2.839-0.058c-0.62-0.601-0.664-2.448-0.623-3.965
					c-1.899,1.132-2.504,2.533-3.604,4.455l-4.456-4.331c2.072-6.74,4.482-12.505,7.702-19.356l-7.96-2.213
					c0.65-2.033,1.736-2.479,2.177-3.238c0.328-0.565-0.587-1.968-1.717-2.731c3.954-4.305,9.156-6.674,15.257-8.236
					c8.866-18.194,18.642-35.104,30.311-51.581c3.993-5.638,10.322-9.127,16.9-4.964c2.279,1.442,3.305,5.228,3.058,7.784
					l-3.744,38.755c3.844-2.099,7.533-0.57,9.398,2.174c-1.699,0.518-2.367,0.778-2.941,1.254c-0.511,0.424,0.344,1.938,0.357,2.48
					c-0.323,2.816-5.471,3.115-7.01,4.456c-3.469,3.022-1.169,8.769-1.044,12.458c0.106,3.117-1.151,5.746-0.776,8.934
					c0.709,6.025-0.929,11.586-4.706,16.483c-4.225-1.675-8.84-3.966-10.444-7.969C170.919,334.16,175.291,326.465,173.515,318.548z
					 M165.591,307.335l9.88-1.843c0.724-6.414,2.426-12.865,1.118-18.636l-7.889,13.079
					C167.314,302.234,164.781,304.512,165.591,307.335z"/>
				<path style="fill:#DC2E26;" d="M248.064,275.194c0.394-0.84,1.711-2.246,0.839-3.158l1.616-3.504
					c1.149-2.774,5.561-1.048,7.455,0.102c2.562,1.556,2.269,4.813,1.348,7.802l-3.281,10.656
					c-1.969,6.393,0.221,4.174,12.667,0.785c2.97-9.187,4.861-17.968,8.768-26.517c1.587-3.473,8.178-2.416,9.202,0.405
					c1.667,4.596-3.097,16.74-6.043,24.074c2.929,0.179,5.006,0.41,7.342,1.446c-0.384,5.188-5.225,7.802-9.432,9.102
					c-4.69,10.596-4.528,25.429-8.873,29.081c-0.748,0.629-0.302,2.986-2.295,2.665c-0.744-0.12-1.225-2.044-1.96-2.398
					c-3.456-1.667-5.379-3.653-4.396-7.806l4.293-18.13l-14.904,3.684c-1.834,8.803-5.237,23.367-8.354,24.978
					c-1.785,0.922-4.822,0.805-5.806-0.156c-1.403-1.37-2.915-3.94-2.323-6.36l3.807-15.565c-0.924-0.536-2.186-0.769-4.142-1.302
					c-0.393-2.165-0.417-5.331,1.328-7.201c1.688-1.808,4.329-2.119,6.585-3.521C243.051,287.798,245.45,280.758,248.064,275.194z"
					/>
				<path style="fill:#DC2F27;" d="M248.903,272.036c0.872,0.912-0.445,2.318-0.839,3.158c1-4.125-3.786-0.023-15.427,2.43
					c-3.338,0.704-2.237,5.195-2.839,6.955l-4.385,12.831c-2.822,8.258-5.742,16.164-7.157,24.871
					c-0.892,5.49-3.81,12.216-6.815,12.806c0.346-0.068-8.364-3.85-7.386-9.175c2.759-15.02,7.477-29.098,12.29-44.075
					c-4.315,0.941-8.13,3.299-11.99,2.51c-1.429-0.292-3.699-2.725-5.034-2.899c-0.02-5.595,3.49-8.565,8.304-9.847
					c14.502-3.863,37.674-12.194,42.623-4.058c-1.916,0.539-3.321,1.541-3.287,2.846
					C246.985,271.261,248.431,271.542,248.903,272.036z"/>
			</g>
		</g>
		<g>
			<path style="fill:#DB2E26;" d="M439.902,319.268c5.279,1.412,8.509,0.035,9.066,1.753c-2.67,0.021-5.761-0.704-8.034,0.912
				l-9.926,0.17c-5.508,1.089-10.324,0.767-16.162,1.197l7.191,1.029c-1.352,2.829-4.378,1.196-5.858,1.521
				c-5.275,1.158-9.237,0.767-14.234,1.304l-9.914,1.065l-31.062,3.847l-35.622,6.116c-5.942,1.02-11.465,2.207-17.37,3.654
				l-20.9,5.121l-18.024,5.17l-24.884,8.242c-5.683,1.882-11.61,4.147-17.801,3.922c-0.516-0.019-1.787,1.096-2.41,0.28
				c-0.319-0.418-1.134-0.783-0.436-1.578l1.437-1.636c-1.752-0.027-4.085-1.577-6.09-1.907c-1.112-0.183-3.937,1.649-4.74-1.12
				l6.583-4.581c30.915-15.843,110.473-30.136,147.475-33.293l12.8-1.092l16.003-1.006l36.95-0.194
				C435.96,318.151,438.438,318.877,439.902,319.268z M412.971,322.95c-1.872-0.836-2.458,1.561-0.213,1.204
				C413.854,324.426,414.221,323.089,412.971,322.95z M410,324h-9.5v1h9.5V324z"/>
			<path style="fill:#ACACAC;" d="M448.968,321.021l6.061-0.049c0.681-0.005,1.71-0.462,2.036,1.096
				c-4.146-0.349-7.399,0.919-11.157,0.465l-4.974-0.601C443.207,320.317,446.298,321.043,448.968,321.021z"/>
			<path style="fill:#D4342B;" d="M455.029,320.972l-6.061,0.049c-0.557-1.718-3.787-0.341-9.066-1.753
				C445.076,318.678,450.26,319.38,455.029,320.972z"/>
			<rect x="400.5" y="324" style="fill:#D4342B;" width="9.5" height="1"/>
			<path style="fill:#D4342B;" d="M412.971,322.95c1.25,0.139,0.883,1.476-0.213,1.204
				C410.513,324.511,411.099,322.114,412.971,322.95z"/>
		</g>
		<g>
			<path style="fill:#050505;" d="M377.948,71.796c0.061,0.672,1.437,1.299,2.219,1.307c0.391,0.004,1.396-0.66-0.037-1.101
				c-0.179-0.667-0.168-1.611-0.237-2.149c0.902,0.249,2.219,0.147,3.486,0.364l4.562,14.928c0.708,2.316,2.148,4.182,1.929,7.075
				c15.088,8.566,18.006,9.039,16.943,25.627c-0.232,3.616,0.632,4.558,2.66,6.708c1.28,1.356,0.951,6.166-0.26,7.574
				c-3.368,3.311-9.404,2.572-13.439,3.262c-0.935,3.086-2.087,6.604-4.507,10.258c7.687,0.903,14.553-0.529,21.044,2.808
				c-3.314,0.37-6.516,1.298-9.343,1.386l-25.629,0.799l-142.676,0.05l-22.449-0.979c4.539-3.736,9.267-1.869,13.843-2.553
				l6.777-1.014c2.919,0.468,5.067,0.82,7.568-0.875c-2.012-2.689-2.433-4.853-2.895-8.073l-15.694-1.207
				c0.273-0.808-0.048-1.635-0.999-2.146c-0.27-0.495-0.769-1.454-0.765-2.284c1.754-0.547,3.08-1.484,4.968-1.25
				c2.659,0.33,5.615,1.545,8.113,0.667c-0.607,0.83-0.18,2.035,0.43,2.034c0.706-0.001,1.512-0.642,3.184,0.47
				c0.311-1.156-0.182-2.474-0.652-3.493l3.811-7.337c2.13-4.1,9.963-5.461,13.693-2.364c4.116,3.417,5.048,8.714,6.345,13.975
				c4.4-1.863,8.382-1.003,12.421-1.051l32.655-0.39l-0.005-1.619l-21.006-0.242l0.22-3.28l7.705,0.303
				c4.646-0.793,8.164-1.41,13.277-0.793c-1.095-3.868,0.616-6.908,0.639-10.271l0.364-53.048c2.668,1.789,1.924,4.526,1.675,7.066
				l30.472-4.511l13.666,1.642L377.948,71.796z M360.109,103.273l-10.662-8.601c6.993,0.087,10.473,5.434,15.696,7.966
				c12.257,1.631,25.083,2.057,37.703,2.87c-8.68-8.621-18.858-11.27-29.96-11.707c-6.287-0.247-12.376-1.464-18.948-0.647
				c-3.222,0.401-6.348-0.561-7.326-3.828l-5.83-19.46l-21.793,3.13c-1.682,0.242-3.802,0.2-4.728,1.67
				c-0.505,0.802-0.831,2.134-0.864,3.595l-0.584,25.736c-0.083,3.638-0.07,6.623-0.223,10.29l-0.557,13.365
				c3.157,0.752,5.68,1.721,8.928,1.299c1.045-9.369,7.318-17.498,17.104-17.808c4.188-0.133,10.383,2.165,11.915,5.529
				l6.543,14.363c-1.196-5.032,1.273-7.447,2.101-10.959C359.925,114.558,358.044,108.603,360.109,103.273z M385.632,91.602
				c-0.818-6.277-2.463-11.043-5.358-16.017C380.204,81.57,381.941,86.583,385.632,91.602z M371.175,112.494
				c-0.2-3.587-2.354-4.312-5.078-3.072c-1.486,0.676-2.142,2.52-1.754,4.887c0.364,2.225,2.475,3.866,4.301,3.724
				C371.093,117.841,371.326,115.194,371.175,112.494z M402.784,111.146c-3.602-1.033-4.729,1.189-4.499,3.156
				c0.194,1.657,1.269,3.906,4.278,3.978C403.335,116.262,403.174,113.386,402.784,111.146z M351.023,131.021
				c-0.137-5.745-1.525-12.256-7.134-15.039c-3.797-1.884-10.258-1.466-13.968,0.979c-5.29,3.486-8.618,10.536-7.535,16.612
				c3.34-2.695,2.691-6.661,4.443-9.559c2.632-4.353,6.75-7.357,11.488-6.898C348.614,118.112,347.15,126.6,351.023,131.021z
				 M365.398,129.992c-0.285,0.681,0.461,1.058,1.542,1.058l23.122-0.005c1.067,0,1.819-0.376,2.182-0.882
				c4.242,1.379,11.022,1.883,14.386-1.603c1.383-2.364-3.365-3.713-5.47-3.72l-26.082-0.079c-5.341-0.016-10.707-2.09-15.706,0.349
				c0.32,1.589,0.166,3.152-0.471,4.765L365.398,129.992z M336.662,127.482l-0.653,0.018l0.653,0.018h0.675l0.653-0.018
				l-0.653-0.018H336.662z M339.332,141.543c-2.807-0.87-4.25-2.813-4.778-4.822c-0.741-2.821-0.099-4.959,1.428-7.923
				c-4.669-1.655-4.701,9.211-1.974,11.73C335.073,141.511,336.766,144.037,339.332,141.543z M246.981,131.247
				c-2.031-1.345-3.043,0.367-2.56,0.827l1.118,6.024L246.981,131.247z M339.533,137.966c1.984-1.532,2.358-2.586,2.51-3.477
				c0.188-1.102-0.855-2.094-1.601-2.427c-0.974-0.435-2.767-0.129-3.193,1.351C336.798,134.982,338.408,137.323,339.533,137.966z
				 M284.006,146.02c-0.414-3.061-1.158-4.245-2.148-6.026l-18.752,0.34c-1.893,0.034-3.536,3.779-3.084,5.573L284.006,146.02z
				 M327.652,145.016l-2.019-4.959l-19.311,0.228c-1.219,0.52-2.447,3.245-2.305,4.69L327.652,145.016z M372.905,145.922
				c-1.692-2.281-2.694-3.377-3.273-5.893l-16.201,0.016c-0.632,2.274-1.647,3.029-2.7,5.853c3.017-1.548,5.318-0.112,8.296-0.088
				L372.905,145.922z"/>
			<path style="fill:#090909;" d="M383.377,70.217c-1.266-0.218-2.584-0.115-3.486-0.364l-21.131-5.847
				c-2.62-0.725-4.52-2.731-7.661-3.319l-19.285-3.612l-28.911-4.997c0.654,4.985-0.63,8.211-0.696,11.997l-0.503,28.873
				c-0.038,2.156,0.635,4.956-1.402,6.624l-0.321-45.56c0.26-0.893-0.882-4.352-2.007-4.1l-58.044,13.024
				c-3.755,0.843-8.196,0.241-10.429,4.905l32.567-6.002c1.031,0.873,1.666,1.944,2.082,3.202l-29.124,6.153l-22.9,6.876
				l-11.916,3.793c3.753,2.781,7.283,0.965,9.531-2.14c2.154,1.399,3.859,2.303,5.754,2.362c3.485,0.108,5.285-3.698,7.412-4.665
				c1.705-0.775,3.692,3.332,8.1,2.593c-0.589,0.988-1.324,1.864-2.255,2.521c-1.472,0.344-2.811-0.063-4.742-0.657
				c-0.025,3.935-0.063,6.9-0.223,10.131l-0.198,3.99l0.408,1.998c-0.418-0.007-0.862-0.023-1.461,0.008
				c-0.646,0.033-0.728,0.881-0.007,0.965c0.615,0.071,1.098,0.054,1.436,0.039l0.068,10.813c6.684,1.086,12.594-0.559,18.983-1.24
				l42.924-4.578c2.813-0.3,5.516,0.451,7.335-1.424c0.67-0.691,2.814-0.505,3.765-0.478c-0.021,1.309,0.179,2.789-0.677,3.737
				c-1.71,1.892-17.745,2.328-27.427,3.238l-44.69,4.202l-0.149,7.564c-0.067,3.422,1.202,6.507,0.92,9.468
				c-1.888-0.234-3.215,0.703-4.968,1.25l0.084-18.647c0.031-6.882,1.689-13.445,0.483-20.281l-10.399-7.654
				c-6.722,3.003-12.95,1.095-14.707-5.302l31.758-10.223c-0.716-2.804-0.176-7.995,2.7-8.627l68.766-15.114l54.071,11.37
				c3.509,0.738,5.718,3.287,8.927,4.087l16.815,4.191C381.405,66.073,382.596,67.661,383.377,70.217z"/>
			<path style="fill:#090909;" d="M221.812,135.991c-0.73-0.22-0.779-1.744-0.999-2.146
				C221.764,134.356,222.085,135.183,221.812,135.991z"/>
			<path style="fill:#0D0E0A;" d="M284.224,127.682l-0.22,3.28l-20.353-0.403C268.239,128.006,278.824,127.47,284.224,127.682z"/>
			<path style="fill:#ACACAC;" d="M392.244,130.163c-0.363,0.506-1.115,0.882-2.182,0.882l-23.122,0.005
				c-1.08,0-1.827-0.377-1.542-1.058L392.244,130.163z"/>
			<path style="fill:#090909;" d="M236.09,129.99c0.47,1.019,0.964,2.336,0.652,3.493c-1.671-1.113-2.477-0.471-3.184-0.47
				c-0.61,0.001-1.036-1.204-0.43-2.034L236.09,129.99z"/>
			<path style="fill:#ACACAC;" d="M246.981,131.247l-1.442,6.851l-1.118-6.024C243.938,131.615,244.95,129.902,246.981,131.247z"/>
			<path style="fill:#090909;" d="M380.129,72.002c1.433,0.442,0.429,1.105,0.037,1.101c-0.781-0.008-2.158-0.635-2.219-1.307
				L380.129,72.002z"/>
			<path style="fill:#020202;" d="M297.04,102.101c-0.951-0.027-3.095-0.213-3.765,0.478c-0.228-2.53-6.467-1.425-14.343-0.486
				l-15.898,1.894l-16.16,1.79c-4.867,0.539-9.5,0.161-14.275,1.998c-1.283,0.494-2.562,0.135-3.156-0.75
				c-0.389-0.579-0.397-1.536-0.209-2.465c0.901-4.454-1.649-7.915-5.645-8.561l0.198-3.99c1.775,0.204,3.278,0.761,5.081,2.077
				c0.245-4.356,0.311-7.868-0.116-11.551c0.931-0.657,1.665-1.533,2.255-2.521c1.173-1.967,2.837-3.414,4.567-5.01
				c0.759,2.49,2.157,3.193,3.912,3.15c4-0.099,4.097-3.594,5.205-4.082c1.777-0.782,3.395,2.26,5.791,2.078
				c1.989-0.151,2.406-3.615,4.166-3.941c1.599-0.297,3.652,3.061,5.715,2.622c3.976-0.845,1.032-8.67,8.879-9.816
				c-2.073-1.278-3.521-0.305-5.092,0.027c-0.416-1.258-1.051-2.329-2.082-3.202l1.921-0.847c-0.156,1.188,1.176,1.188,0.999-0.131
				l32.157-7.107l0.162,31.542L297.04,102.101z M272.919,71.311c-0.041-1.559-1.045-1.197-1.328-1.483
				c-0.534-0.54-1.332-0.692-1.555,0.43c-0.125,0.63,0.914,1.28,2.437,1.736L272.919,71.311z M273.5,72.003l-0.279,0.866
				c0.614,1.666,1.416,3.706,4.645,2.961C276.804,73.821,275.334,72.701,273.5,72.003z M280.113,78c0-0.615-0.499-1.113-1.113-1.113
				s-1.113,0.499-1.113,1.113s0.499,1.113,1.113,1.113S280.113,78.615,280.113,78z M286.845,84.191
				c-0.34-1.229-0.906-1.875-1.419-2.206c-0.495-0.32-1.955,0.422-1.78,0.8c0.781,1.687,1.985,1.887,2.845,2.199L286.845,84.191z
				 M287.509,84.996l-0.342,0.841c0.833,1.826,1.742,3.477,4.504,4.371C291.508,87.686,289.778,85.629,287.509,84.996z"/>
			<path style="fill:#020202;" d="M223.997,97.997c0.062,0.304,0,0.714-0.032,1.012c-0.338,0.015-0.821,0.032-1.436-0.039
				c-0.721-0.083-0.64-0.931,0.007-0.965C223.135,97.974,223.579,97.99,223.997,97.997z"/>
			<path style="fill:#090909;" d="M263.99,60.992c0.325,0.052,0.746-0.075,0.999-0.131C265.166,62.18,263.834,62.18,263.99,60.992z"
				/>
			<path style="fill:#050505;" d="M338.406,94.345c-0.496-0.845-2.192-1.459-2.732-1.35c-0.445,0.09-0.281,1.009-0.169,1.969
				c-8.696-0.653-19.171,2.721-19.179-0.165l-0.05-18.363c7.008-2.023,13.577-3.224,21.164-2.665l3.696,15.142l-0.089,11.162
				c-0.006,0.734-1.187,1.97-2.091,1.805C338.959,99.441,339.681,96.516,338.406,94.345z M334.851,91.636
				c0.962-3.95,0.771-6.885-0.978-9.501l-3.347-0.374c-0.978,3.262-1.811,6.487-1.506,10.089
				C331.111,92.22,333.003,92.303,334.851,91.636z"/>
		</g>
	</g>
</g>
</svg>
